<svg width="744.006" height="93.006" viewBox="0 0 744.006 93.006" xmlns="http://www.w3.org/2000/svg"><defs><linearGradient id="warpGradient" x1="0" y1="0" x2="744" y2="0" gradientUnits="userSpaceOnUse"><stop offset="0%" stop-color="#f4c61f"/><stop offset="20%" stop-color="#f39923"/><stop offset="40%" stop-color="#ee7330"/><stop offset="60%" stop-color="#e25a45"/><stop offset="80%" stop-color="#de515b"/><stop offset="100%" stop-color="#de547c"/></linearGradient></defs><g id="svgGroup" stroke-linecap="round" fill-rule="evenodd" font-size="9pt" stroke="none" stroke-width="0" fill="url(#warpGradient)" style="stroke:none;stroke-width:0;fill:url(#warpGradient)"><path d="M 88.68 26.88 L 104.88 65.64 L 127.8 16.8 L 104.76 68.04 L 84.72 27 L 104.76 73.56 L 131.64 16.8 L 104.76 75.84 L 80.88 27 L 104.76 81.84 L 135.6 16.8 L 104.76 84.12 L 76.92 27.12 L 65.88 3.24 L 77.76 3.24 L 88.68 26.88 Z M 96.6 89.76 L 96 89.76 L 65.28 27 L 92.52 89.76 L 91.92 89.76 L 63.36 30.72 L 63.12 30.72 L 51.84 52.44 L 51.12 51 L 61.2 27 L 49.92 48.36 L 49.2 46.8 L 57.12 27 L 48 44.16 L 47.28 42.72 L 53.16 27.24 L 63.24 5.52 L 73.2 27 L 100.68 89.76 L 100.08 89.76 L 69.12 27 L 96.6 89.76 Z M 25.32 3.24 L 36.24 26.76 L 52.56 65.64 L 62.16 45.36 L 52.44 68.04 L 32.4 27 L 52.44 73.56 L 64.08 49.68 L 52.44 75.84 L 28.56 27 L 52.44 81.84 L 66.12 53.88 L 52.44 84.12 L 24.6 27.24 L 13.56 3.24 L 25.32 3.24 Z M 27.6 0 L 44.76 37.2 L 62.04 0 L 79.92 0 L 97.08 37.2 L 114.36 0 L 132.72 0 L 142.56 14.28 L 106.08 93 L 88.2 93 L 70.92 55.92 L 53.76 93 L 35.88 93 L 0 15.6 L 10.8 0 L 27.6 0 Z M 44.28 89.76 L 43.68 89.76 L 12.84 27 L 40.2 89.76 L 39.6 89.76 L 9 27.12 L 3.84 15.96 L 10.92 5.64 L 20.76 26.76 L 48.36 89.76 L 47.76 89.76 L 16.8 27 L 44.28 89.76 Z M 117.36 26.88 L 104.16 52.44 L 103.44 50.88 L 113.52 27 L 102.24 48.36 L 101.52 46.8 L 109.44 27 L 100.32 44.16 L 99.6 42.72 L 105.48 27.24 L 115.8 4.8 L 122.88 15 L 117.36 26.88 Z M 130.92 3.24 L 137.52 12.84 L 125.52 12.84 L 118.92 3.24 L 130.92 3.24 Z" id="0" vector-effect="non-scaling-stroke"/><path d="M 227.88 93 L 209.88 93 L 202.44 80.16 L 164.04 80.16 L 156.6 93 L 138.48 93 L 128.64 78.72 L 174.24 0 L 192.24 0 L 237.84 78.6 L 227.88 93 Z M 187.8 56.04 L 175.68 57.72 L 189.6 59.16 L 177.48 60.84 L 191.52 62.4 L 179.4 64.08 L 153.36 64.08 L 145.8 76.92 L 133.56 76.92 L 176.28 3.24 L 188.52 3.24 L 158.88 54.48 L 173.76 54.48 L 187.8 56.04 Z M 191.4 11.52 L 167.28 50.52 L 191.4 6.24 L 230.4 76.32 L 191.4 11.52 Z M 191.4 18.6 L 171.36 50.52 L 191.4 13.32 L 228.24 79.44 L 191.4 18.6 Z M 162.24 72.24 L 206.4 71.4 L 188.64 39.12 L 219.24 89.76 L 216.72 89.76 L 207.24 72.96 L 162.24 72.24 Z M 191.28 25.56 L 175.32 50.52 L 191.4 20.4 L 225.96 82.68 L 191.28 25.56 Z M 203.16 69.72 L 160.32 69 L 200.76 68.28 L 186.6 42.6 L 203.16 69.72 Z M 220.56 89.76 L 190.56 35.64 L 223.44 89.76 L 220.56 89.76 Z M 212.52 89.76 L 205.08 75.96 L 164.04 75.36 L 206.16 74.64 L 215.28 89.76 L 212.52 89.76 Z M 154.8 86.52 L 154.2 85.68 L 159.72 77.52 L 154.8 86.52 Z M 157.56 74.28 L 152.52 83.28 L 152.04 82.44 L 157.56 74.28 Z M 155.28 71.16 L 150.36 80.04 L 149.88 79.32 L 155.28 71.16 Z M 183.24 47.04 L 185.64 51.24 L 180.84 51.24 L 183.24 47.04 Z" id="1" vector-effect="non-scaling-stroke"/><path d="M 280.2 12.84 L 247.56 12.84 L 258.36 3.24 L 282.84 3.24 C 292.2 3.24 300.12 6.36 305.52 11.88 C 309.72 17.04 312 24.36 312 33.72 C 312 50.64 304.08 61.92 284.28 63.96 L 282 64.2 L 310.44 89.76 L 294 89.76 L 265.68 64.2 L 256.08 64.2 L 256.08 89.76 L 244.92 89.76 L 244.92 16.08 L 279.96 16.08 C 292.68 16.08 299.04 23.16 299.04 33.72 C 298.68 41.52 294.84 50.28 279.96 50.04 L 264.36 49.8 L 279.96 49.44 C 288 49.2 295.56 44.76 295.32 33.96 C 294.72 43.56 288 46.92 280.08 46.8 L 268.08 46.56 L 280.08 46.2 C 286.44 45.96 292.2 41.76 291.6 33.84 C 291 40.2 286.8 43.8 280.2 43.56 L 271.8 43.32 L 280.2 42.96 C 284.88 42.72 288 39 288 33.6 C 288 28.56 284.28 25.68 279.24 25.68 L 256.08 25.68 L 256.08 54.6 L 271.2 54.6 L 282.12 54.96 C 298.56 55.56 303.96 44.52 303.96 33.72 C 303.96 29.04 301.44 22.32 296.76 18.6 C 293.64 15.6 288.84 12.84 280.2 12.84 Z M 273.72 79.32 L 258.48 93 L 241.68 93 L 241.68 13.68 L 256.92 0 L 282.96 0 C 301.2 0 316.68 11.04 316.68 33.72 C 316.68 46.08 312.48 55.32 305.04 60.84 L 328.32 81.84 L 315.96 93 L 292.32 93 L 273.72 76.2 L 273.72 79.32 Z M 282.12 60.72 C 304.2 59.28 308.28 45.12 308.28 33.72 C 308.28 25.8 307.08 20.64 302.64 14.16 C 308.16 18.36 311.4 27.36 311.4 33.72 C 311.4 51.36 301.56 62.4 282.12 61.2 L 278.28 60.96 L 282.12 60.72 Z M 274.92 57.84 L 281.52 57.48 C 301.8 56.4 304.56 42.48 304.56 33.72 C 304.56 26.28 303.6 21.84 299.64 16.2 C 304.8 19.92 307.68 27.96 307.68 33.72 C 307.68 50.04 298.68 59.16 281.52 58.2 L 274.92 57.84 Z M 315.96 88.56 L 293.04 67.2 L 316.92 87.72 L 315.96 88.56 Z M 318.72 86.04 L 297.24 66 L 319.68 85.2 L 318.72 86.04 Z M 321.36 83.64 L 300.84 64.32 L 322.44 82.68 L 321.36 83.64 Z M 261.24 67.92 L 261.84 85.56 L 260.76 86.52 L 261.24 67.92 Z M 273.72 38.52 L 273.72 28.92 L 279.6 28.92 C 282.96 28.92 284.88 30.72 284.88 33.72 C 284.88 35.88 283.68 38.52 279.6 38.52 L 273.72 38.52 Z M 261.24 47.04 L 261.12 28.92 L 261.48 28.92 L 261.24 47.04 Z M 264.96 43.68 L 264.84 28.92 L 265.2 28.92 L 264.96 43.68 Z M 264.96 68.88 L 265.56 82.2 L 264.48 83.16 L 264.96 68.88 Z M 268.68 40.44 L 268.56 28.92 L 268.92 28.92 L 268.68 40.44 Z M 268.68 72.24 L 269.28 78.84 L 268.32 79.68 L 268.68 72.24 Z" id="2" vector-effect="non-scaling-stroke"/><path d="M 368.76 12.84 L 336.12 12.84 L 346.92 3.24 L 371.4 3.24 C 380.76 3.24 388.68 6.36 394.08 11.88 C 398.28 17.04 400.56 24.36 400.56 33.72 C 400.56 50.64 392.16 63.12 371.4 63.72 L 356.52 64.2 L 344.64 64.2 L 344.64 89.76 L 333.48 89.76 L 333.48 16.08 L 368.52 16.08 C 381.24 16.08 387.6 23.16 387.6 33.72 C 387.24 41.52 383.4 50.28 368.52 50.04 L 352.92 49.8 L 368.52 49.44 C 376.56 49.2 384.12 44.76 383.88 33.96 C 383.28 43.56 376.56 46.92 368.64 46.8 L 356.64 46.56 L 368.64 46.2 C 375 45.96 380.76 41.76 380.16 33.84 C 379.56 40.2 375.36 43.8 368.76 43.56 L 360.36 43.32 L 368.76 42.96 C 373.44 42.72 376.44 39 376.44 33.6 C 376.44 28.56 372.72 25.68 367.8 25.68 L 344.64 25.68 L 344.64 54.6 L 356.52 54.6 L 369.36 55.08 C 387.6 55.68 392.52 44.52 392.52 34.44 C 392.52 29.04 390 22.32 385.32 18.6 C 382.2 15.24 376.44 12.84 368.76 12.84 Z M 347.04 93 L 330.24 93 L 330.24 13.68 L 345.48 0 L 371.52 0 C 389.76 0 405.24 11.04 405.24 33.72 C 405.24 56.4 391.08 67.44 371.88 67.44 L 362.28 67.44 L 362.28 79.32 L 347.04 93 Z M 370.68 60.48 C 392.64 59.76 396.84 45.12 396.84 33.72 C 396.84 25.8 395.64 20.64 391.2 14.16 C 396.72 18.36 399.96 27.36 399.96 34.44 C 399.96 51.36 390.36 62.04 370.68 61.44 L 356.52 60.96 L 370.68 60.48 Z M 356.52 57.84 L 370.08 57.36 C 390.36 56.64 393.12 42.48 393.12 33.72 C 393.12 26.28 392.16 21.84 388.2 16.2 C 393.36 19.92 396.24 27.96 396.24 34.44 C 396.24 50.04 387.48 58.92 370.08 58.32 L 356.52 57.84 Z M 349.8 67.92 L 350.4 85.56 L 349.32 86.52 L 349.8 67.92 Z M 362.28 38.52 L 362.28 28.92 L 368.04 28.92 C 371.4 28.92 373.32 30.72 373.32 33.6 C 373.32 35.88 372.12 38.52 368.04 38.52 L 362.28 38.52 Z M 349.8 47.04 L 349.68 28.92 L 350.04 28.92 L 349.8 47.04 Z M 353.52 67.92 L 354.12 82.2 L 353.04 83.16 L 353.52 67.92 Z M 353.52 43.68 L 353.4 28.92 L 353.76 28.92 L 353.52 43.68 Z M 357.24 67.8 L 357.84 78.84 L 356.76 79.8 L 357.24 67.8 Z M 357.24 40.44 L 357.12 28.92 L 357.48 28.92 L 357.24 40.44 Z" id="3" vector-effect="non-scaling-stroke"/><path d="M 424.8 39.48 L 447.12 38.64 L 424.8 37.68 L 424.8 36.24 L 448.32 35.4 L 470.4 35.4 L 459.72 45 L 444.72 45 L 424.8 44.04 L 424.8 42.6 L 445.92 41.76 L 424.8 40.8 L 424.8 39.48 Z M 407.16 61.08 L 407.16 45.84 L 422.4 32.16 L 476.4 32.16 L 476.4 47.4 L 461.16 61.08 L 407.16 61.08 Z M 415.8 56.28 L 458.76 55.2 L 458.76 57.36 L 415.8 56.28 Z M 458.76 54 L 419.4 53.16 L 458.76 51.96 L 458.76 54 Z M 423.12 49.92 L 458.76 48.84 L 458.76 50.76 L 423.12 49.92 Z M 421.56 37.44 L 421.56 45.84 L 410.4 55.8 L 410.4 47.4 L 421.56 37.44 Z M 463.68 45.96 L 464.04 45.6 L 464.04 54 L 463.68 54.36 L 463.68 45.96 Z M 467.4 51 L 467.4 42.6 L 467.76 42.36 L 467.76 50.76 L 467.4 51 Z M 471.12 47.64 L 471.12 39.36 L 471.48 39 L 471.48 47.4 L 471.12 47.64 Z" id="4" vector-effect="non-scaling-stroke"/><path d="M 526.32 12.84 L 526.32 27.6 L 524.52 78.84 L 522.6 27.6 L 520.8 82.08 L 518.76 27.6 L 517.08 85.44 L 515.16 27.6 L 515.16 12.84 L 473.28 12.84 L 483.84 3.24 L 553.92 3.24 L 543.24 12.84 L 526.32 12.84 Z M 559.92 0 L 559.92 15.24 L 544.56 28.92 L 529.56 28.92 L 529.56 79.32 L 514.32 93 L 497.52 93 L 497.52 28.92 L 467.16 28.92 L 467.16 13.68 L 482.4 0 L 559.92 0 Z M 500.76 89.76 L 500.76 44.52 L 502.56 26.88 L 504.48 46.92 L 506.28 23.64 L 508.32 49.32 L 510 20.28 L 511.92 51.72 L 511.92 89.76 L 500.76 89.76 Z M 506.76 17.76 L 470.4 18.48 L 470.4 16.92 L 506.76 17.76 Z M 503.04 21 L 470.4 21.72 L 470.4 20.16 L 503.04 21 Z M 499.56 24.12 L 470.4 24.96 L 470.4 23.4 L 499.56 24.12 Z M 530.28 17.76 L 542.28 16.92 L 542.28 18.48 L 530.28 17.76 Z M 542.28 24.96 L 530.28 24.12 L 542.28 23.4 L 542.28 24.96 Z M 542.28 21.72 L 530.28 21 L 542.28 20.16 L 542.28 21.72 Z M 550.92 18.72 L 550.92 10.44 L 551.28 10.08 L 551.28 18.48 L 550.92 18.72 Z M 554.64 15.36 L 554.64 7.08 L 555 6.72 L 555 15.12 L 554.64 15.36 Z M 547.2 13.8 L 547.56 13.44 L 547.56 21.72 L 547.2 22.08 L 547.2 13.8 Z" id="5" vector-effect="non-scaling-stroke"/><path d="M 617.88 12.84 L 617.88 27.6 L 616.08 78.84 L 614.16 27.6 L 612.36 82.08 L 610.32 27.6 L 608.64 85.44 L 606.72 27.6 L 606.72 12.84 L 564.84 12.84 L 575.4 3.24 L 645.48 3.24 L 634.8 12.84 L 617.88 12.84 Z M 651.48 0 L 651.48 15.24 L 636.12 28.92 L 621.12 28.92 L 621.12 79.32 L 605.88 93 L 589.08 93 L 589.08 28.92 L 558.72 28.92 L 558.72 13.68 L 573.96 0 L 651.48 0 Z M 592.32 89.76 L 592.32 44.52 L 594.12 26.88 L 596.04 46.92 L 597.84 23.64 L 599.88 49.32 L 601.56 20.28 L 603.48 51.72 L 603.48 89.76 L 592.32 89.76 Z M 598.32 17.76 L 561.96 18.48 L 561.96 16.92 L 598.32 17.76 Z M 594.6 21 L 561.96 21.72 L 561.96 20.16 L 594.6 21 Z M 591.12 24.12 L 561.96 24.96 L 561.96 23.4 L 591.12 24.12 Z M 621.84 17.76 L 633.84 16.92 L 633.84 18.48 L 621.84 17.76 Z M 633.84 24.96 L 621.84 24.12 L 633.84 23.4 L 633.84 24.96 Z M 633.84 21.72 L 621.84 21 L 633.84 20.16 L 633.84 21.72 Z M 642.48 18.72 L 642.48 10.44 L 642.84 10.08 L 642.84 18.48 L 642.48 18.72 Z M 646.2 15.36 L 646.2 7.08 L 646.56 6.72 L 646.56 15.12 L 646.2 15.36 Z M 638.76 13.8 L 639.12 13.44 L 639.12 21.72 L 638.76 22.08 L 638.76 13.8 Z" id="6" vector-effect="non-scaling-stroke"/><path d="M 693.12 12.84 L 661.68 12.84 L 672.48 3.24 L 696.24 3.24 C 709.92 3.24 721.44 7.92 729.24 15.96 C 736.32 25.56 739.08 33.48 739.08 46.44 C 739.08 72.72 719.88 88.44 693.72 89.28 L 678.6 89.76 L 659.04 89.76 L 659.04 16.08 L 693.12 16.08 C 713.76 16.08 726.36 28.44 726.36 46.56 C 725.28 65.76 712.56 75.6 693.12 75.48 L 678.6 75.36 L 692.76 75 C 710.88 74.52 723 64.92 722.64 46.56 C 721.8 63.12 710.4 72.72 693.12 72.36 L 682.2 72.12 L 692.88 71.88 C 705.24 71.64 719.28 66 718.92 46.56 C 718.32 60 709.68 69.24 693.12 69 L 685.92 68.88 L 692.88 68.64 C 709.32 68.04 715.2 59.04 715.2 47.52 L 715.2 46.56 C 715.2 33.72 707.04 25.68 693.12 25.68 L 670.2 25.68 L 670.2 80.16 L 678.6 80.16 L 693.12 80.64 C 719.4 81.48 731.04 64.08 731.04 46.56 C 731.04 37.44 726.96 28.44 720.36 22.8 C 714 16.56 704.64 12.84 693.12 12.84 Z M 696.24 0 C 724.32 0 744 18.36 744 46.44 C 744 74.52 725.88 93 693.72 93 L 655.8 93 L 655.8 13.68 L 671.04 0 L 696.24 0 Z M 693.72 86.04 C 709.2 85.56 735.36 77.52 735.36 46.56 C 735.36 35.88 733.56 27.48 726.12 18 C 733.92 23.76 738.36 36 738.48 46.44 C 738.6 64.08 726.96 88.08 693.72 87 L 678.6 86.52 L 693.72 86.04 Z M 693.48 82.92 C 709.44 82.44 731.64 73.32 731.64 46.56 C 731.64 37.2 730.08 29.4 723.24 20.4 C 730.44 25.44 734.76 36.96 734.76 46.56 C 734.76 70.2 717.24 84.96 693.48 84 L 678.6 83.4 L 693.48 82.92 Z M 687.84 64.08 L 687.84 28.92 L 693.12 28.92 C 705.24 28.92 711.96 35.52 711.96 46.56 C 711.96 57.36 705.24 64.08 693.12 64.08 L 687.84 64.08 Z M 675.24 72.48 L 674.76 28.92 L 676.2 28.92 L 675.24 72.48 Z M 678.96 69.12 L 678.36 28.92 L 679.8 28.92 L 678.96 69.12 Z M 682.68 65.76 L 681.96 28.92 L 683.4 28.92 L 682.68 65.76 Z" id="7" vector-effect="non-scaling-stroke"/></g></svg>